<svg id="Group_1654" data-name="Group 1654" xmlns="http://www.w3.org/2000/svg" xmlns:xlink="http://www.w3.org/1999/xlink" width="60.66" height="66.713" viewBox="0 0 60.66 66.713">
  <defs>
    <clipPath id="clip-path">
      <rect id="Rectangle_1777" data-name="Rectangle 1777" width="60.66" height="66.713" fill="none"/>
    </clipPath>
  </defs>
  <g id="Group_1653" data-name="Group 1653" clip-path="url(#clip-path)">
    <path id="Path_966" data-name="Path 966" d="M10.638,252.958c-.316,2.556-.695,2.884-3.19,2.884-1.685,0-3.37.006-5.055,0A2.118,2.118,0,0,1,0,253.431q0-9.27,0-18.54a2.14,2.14,0,0,1,2.435-2.441q2.831-.005,5.662,0c1.7,0,2.462.767,2.47,2.468,0,.262,0,.523,0,.8,1.236-.483,2.37-1.025,3.56-1.376A13.481,13.481,0,0,1,26.659,236.7a8.232,8.232,0,0,0,5.548,1.835c1.659-.076,3.331.077,4.986-.035a4.818,4.818,0,0,1,5.329,5.837l3.424-1.221c2.809-1,5.61-2.03,8.428-3.005a4.628,4.628,0,0,1,6.233,3.74,4.7,4.7,0,0,1-2.317,4.665A62.168,62.168,0,0,1,46.692,254a58.634,58.634,0,0,1-11.364,3.009,27.54,27.54,0,0,1-13.522-1.452,39.329,39.329,0,0,0-8.939-2.422c-.73-.085-1.466-.12-2.228-.181m-.035-1.821a35.711,35.711,0,0,1,11.829,2.7,24.513,24.513,0,0,0,12.862,1.329,63.907,63.907,0,0,0,22.079-8.23,2.822,2.822,0,0,0-2.4-5.093c-1.294.445-2.578.918-3.866,1.379-3.549,1.27-7.09,2.559-10.65,3.8a10.209,10.209,0,0,1-2.844.681c-2.333.1-4.674.033-7.011.03-.2,0-.471.052-.59-.054-.275-.246-.662-.576-.658-.866s.389-.628.675-.861c.139-.113.434-.043.658-.044,2.36,0,4.72.014,7.079-.007a2.839,2.839,0,0,0,3-2.8,2.753,2.753,0,0,0-3.024-2.727q-3.068-.006-6.136,0a8.935,8.935,0,0,1-5.468-1.792,19.032,19.032,0,0,0-2.3-1.529c-4.335-2.311-8.562-1.775-12.711.547a.994.994,0,0,0-.58,1c.022,3.934.012,7.868.014,11.8,0,.22.02.44.034.732M1.9,234.3c-.023.257-.051.431-.051.6q0,9.23-.012,18.459c0,.5.139.659.647.651q2.794-.042,5.59,0c.542.009.688-.162.684-.691-.023-2.919-.011-5.838-.011-8.758q0-4.817,0-9.634c0-.313.061-.642-.442-.639-2.108.012-4.217.005-6.4.005" transform="translate(0 -190.58)"/>
    <path id="Path_967" data-name="Path 967" d="M132.188,13.745a3.452,3.452,0,0,1,2.46-5.366c-.079-.3-.148-.593-.238-.882-.623-2.015-1.242-4.032-1.881-6.042-.156-.492-.2-.945.267-1.269.492-.343.926-.144,1.334.214.538.471,1.094.922,1.668,1.4.612-.514,1.2-1,1.775-1.493a.961.961,0,0,1,1.391,0c.581.493,1.168.979,1.785,1.5L142.3.489c.766-.647,1.058-.65,1.81-.019.516.433,1.033.864,1.594,1.332.539-.449,1.074-.884,1.6-1.335.412-.357.838-.655,1.383-.3s.45.858.285,1.382c-.68,2.162-1.348,4.328-2.02,6.492-.032.1-.058.206-.086.305,3,1.162,3.736,2.761,2.5,5.32,1.066.748,2.179,1.427,3.179,2.246A18.525,18.525,0,0,1,153.2,43.93a5.764,5.764,0,0,1-3.916,1.572q-8.529.029-17.059,0a5.886,5.886,0,0,1-4.014-1.666A18.521,18.521,0,0,1,131.567,14.1l.621-.356m8.526,29.972q4.011,0,8.021,0a4.714,4.714,0,0,0,3.331-1.217,16.712,16.712,0,0,0-2.04-26.2,6.116,6.116,0,0,0-3.9-1.231c-3.586.18-7.187.059-10.782.054-.313,0-.626-.074-.937-.064a2.466,2.466,0,0,0-.961.135,16.706,16.706,0,0,0-4.361,26.962,5.244,5.244,0,0,0,3.873,1.564c2.584-.019,5.168-.005,7.752-.005M135.207,3.875l1.408,4.532H143.6c1.29,0,1.291,0,1.684-1.255q.515-1.648,1.024-3.3c-1.55.275-2.029-1.251-3.148-1.669-.534.447-1.081.91-1.634,1.364-.624.513-.924.517-1.538.014-.569-.466-1.128-.943-1.649-1.381-1.114.47-1.6,1.912-3.131,1.692m5.519,9.4c1.865,0,3.73.011,5.6-.01a2.371,2.371,0,0,0,1.028-.23,1.464,1.464,0,0,0,.679-1.683,1.52,1.52,0,0,0-1.583-1.112q-5.662-.021-11.325,0a1.528,1.528,0,0,0-1.692,1.524c0,.912.692,1.507,1.77,1.511,1.842.005,3.685,0,5.528,0" transform="translate(-100.199 0)"/>
    <path id="Path_968" data-name="Path 968" d="M161.158,115.972a8.409,8.409,0,0,0,.192-1.447,2.139,2.139,0,0,0-.36-1.137c-.317-.454-.795-.793-1.148-1.227a2.116,2.116,0,0,1-.034-2.893,11.375,11.375,0,0,1,1.156-1.222,1.25,1.25,0,0,0,.408-1.268,9.788,9.788,0,0,1-.212-1.735,2,2,0,0,1,1.574-2.143,6.23,6.23,0,0,1,1.385-.264,1.579,1.579,0,0,0,1.524-1.1,6.334,6.334,0,0,1,.675-1.239,2.049,2.049,0,0,1,2.586-.846,10.82,10.82,0,0,1,1.517.722,1.405,1.405,0,0,0,1.463-.006,11.736,11.736,0,0,1,1.454-.7,2.033,2.033,0,0,1,2.637.848,9.27,9.27,0,0,1,.761,1.422,1.4,1.4,0,0,0,1.244.875,9.865,9.865,0,0,1,1.651.309A1.988,1.988,0,0,1,181.126,105a8.618,8.618,0,0,1-.206,1.667,1.359,1.359,0,0,0,.46,1.443,9.009,9.009,0,0,1,1.026,1.068,2.151,2.151,0,0,1-.036,3.05,10.774,10.774,0,0,1-1.036,1.059,1.294,1.294,0,0,0-.427,1.33,10.089,10.089,0,0,1,.219,1.6,2.106,2.106,0,0,1-1.738,2.3,7.342,7.342,0,0,1-1.391.243,1.44,1.44,0,0,0-1.316.974,8.425,8.425,0,0,1-.827,1.46,1.961,1.961,0,0,1-2.447.724c-.565-.209-1.078-.573-1.651-.744a2.322,2.322,0,0,0-1.262.007c-.551.165-1.042.524-1.586.725a2.016,2.016,0,0,1-2.586-.836,12.966,12.966,0,0,1-.832-1.537,1.214,1.214,0,0,0-1.034-.744,12.276,12.276,0,0,1-1.525-.262,2.2,2.2,0,0,1-1.772-2.556m18.175-10.84.247-.255a6.13,6.13,0,0,0-.614-.227,4.2,4.2,0,0,0-.794-.144,3.511,3.511,0,0,1-3.259-2.291c-.629-1.436-.575-1.275-1.836-.568a3.572,3.572,0,0,1-3.816.024c-1.38-.785-1.255-.834-1.923.612a3.419,3.419,0,0,1-2.9,2.183c-1.854.218-1.56.134-1.282,1.87a3.147,3.147,0,0,1-1.039,3.157c-.171.145-.329.306-.488.464-.686.68-.746.856,0,1.437a3.844,3.844,0,0,1,1.383,4.434c-.018.065-.03.131-.044.2-.095.427.036.7.5.761.222.029.44.108.662.118a3.475,3.475,0,0,1,3.25,2.3c.59,1.341.533,1.286,1.788.573a3.558,3.558,0,0,1,3.811-.071c1.423.8,1.282.9,2.008-.667a3.4,3.4,0,0,1,2.877-2.11c1.706-.214,1.565-.061,1.281-1.758a3.313,3.313,0,0,1,.974-3.248c1.388-1.29,1.415-1.112-.02-2.478a3,3,0,0,1-1-2.849c.086-.486.154-.975.23-1.463" transform="translate(-130.569 -81.404)"/>
    <path id="Path_969" data-name="Path 969" d="M210.058,129.882a4.281,4.281,0,0,1-.273.7q-3.326,5.065-6.673,10.116a.9.9,0,0,1-1.564,0,1.036,1.036,0,0,1,.172-1.185q2.153-3.258,4.3-6.521,1.111-1.686,2.227-3.37c.257-.386.621-.663,1.075-.439a3.28,3.28,0,0,1,.738.705" transform="translate(-165.144 -105.844)"/>
    <path id="Path_970" data-name="Path 970" d="M233.233,168.255a2.767,2.767,0,0,1-.059-5.533,2.767,2.767,0,1,1,.059,5.533m-.1-1.844a.893.893,0,0,0,1-.85.854.854,0,0,0-.8-.981.915.915,0,0,0-1.051.807.929.929,0,0,0,.843,1.025" transform="translate(-188.951 -133.412)"/>
    <path id="Path_971" data-name="Path 971" d="M189.24,134.563a2.722,2.722,0,0,1,2.8-2.729,2.77,2.77,0,0,1,2.734,2.748,2.819,2.819,0,0,1-2.786,2.786,2.776,2.776,0,0,1-2.747-2.805m3.678.01a.93.93,0,1,0-.915.95.9.9,0,0,0,.915-.95" transform="translate(-155.154 -108.088)"/>
  </g>
</svg>
