<svg id="Group_1659" data-name="Group 1659" xmlns="http://www.w3.org/2000/svg" xmlns:xlink="http://www.w3.org/1999/xlink" width="63.333" height="63.688" viewBox="0 0 63.333 63.688">
  <defs>
    <clipPath id="clip-path">
      <rect id="Rectangle_1780" data-name="Rectangle 1780" width="63.333" height="63.688" fill="none"/>
    </clipPath>
  </defs>
  <g id="Group_1658" data-name="Group 1658" clip-path="url(#clip-path)">
    <path id="Path_995" data-name="Path 995" d="M29.536,110.427c.89.174,1.083.77,1.075,1.574-.027,2.573-.008,5.146-.011,7.719,0,1.042-.355,1.4-1.4,1.4q-7.12,0-14.24,0c-1.041,0-1.393-.355-1.394-1.4,0-2.573.016-5.146-.011-7.719-.009-.8.185-1.4,1.068-1.57,0-.85.03-1.671-.008-2.489a3.343,3.343,0,0,0-1.272-2.395c-2.228-1.966-4.43-3.963-6.67-5.916a6.435,6.435,0,0,1-2.047-3.335Q2.455,88.038.213,79.8a4.324,4.324,0,0,1,1.614-4.955.871.871,0,0,0,.281-.595A4.306,4.306,0,0,1,5.651,69.9a4.429,4.429,0,0,1,4.855,3.154q2.24,6.57,4.548,13.116a1.189,1.189,0,0,0,.491.57q4.461,2.643,8.94,5.255a9.6,9.6,0,0,1,5.052,8.826c0,3.193,0,6.386,0,9.607m-2.129.014c0-3.358.025-6.639-.007-9.919a7.369,7.369,0,0,0-3.688-6.516c-.826-.516-1.678-.991-2.519-1.483-2.255-1.321-4.505-2.65-6.768-3.957a2.119,2.119,0,0,0-3.124.945,2.1,2.1,0,0,0,.986,2.727c1.912,1.117,3.836,2.214,5.749,3.329.731.425.936,1.01.591,1.588s-.947.66-1.681.237c-1.919-1.105-3.844-2.2-5.751-3.327a4.241,4.241,0,0,1-1.781-5.573,1.158,1.158,0,0,0,.076-.744q-1.576-4.967-3.2-9.92a2.158,2.158,0,0,0-1.825-1.548,2.082,2.082,0,0,0-2.249,2.752c1.5,5.624,3.023,11.242,4.519,16.867A4.021,4.021,0,0,0,8,97.953c2.244,1.979,4.462,3.989,6.715,5.959a5.615,5.615,0,0,1,2.046,4.561c-.015.655,0,1.31,0,1.967Zm1.041,2.212H15.731v6.295H28.447ZM4.276,74.07a4.574,4.574,0,0,1,4.231,3.674q.822,2.557,1.651,5.111.59,1.82,1.188,3.642l1.413-.419c-.309-.887-.608-1.738-.9-2.591q-1.7-4.92-3.4-9.841a2.318,2.318,0,0,0-2.507-1.631A2.081,2.081,0,0,0,4.276,74.07" transform="translate(0 -57.43)"/>
    <path id="Path_996" data-name="Path 996" d="M200.052,110.369c.952.4,1.064.577,1.064,1.615q0,3.858,0,7.716c0,1.043-.355,1.4-1.4,1.4q-7.117,0-14.234,0c-1.048,0-1.4-.352-1.4-1.39q0-3.891,0-7.782c0-.98.129-1.168,1.064-1.548,0-3.155.022-6.324-.006-9.493A9.613,9.613,0,0,1,188.7,93a11.706,11.706,0,0,1,1.539-1.04c2.919-1.722,5.851-3.421,8.761-5.156a1.682,1.682,0,0,0,.672-.818q2.31-6.542,4.566-13.1a4.358,4.358,0,0,1,4.817-3,4.31,4.31,0,0,1,3.521,4.306.95.95,0,0,0,.3.651,4.268,4.268,0,0,1,1.614,4.833q-1.99,7.441-3.975,14.883c-1.05,3.942-.855,3.578-3.91,6.3-1.723,1.532-3.434,3.078-5.179,4.585a3.635,3.635,0,0,0-1.379,3.088c.031.618.005,1.239.005,1.845m-2.129.068c0-.733.006-1.415,0-2.1a5.517,5.517,0,0,1,1.98-4.392c2.264-1.993,4.508-4.009,6.77-6a4.023,4.023,0,0,0,1.271-2.051c1.484-5.585,2.991-11.165,4.484-16.748a2.153,2.153,0,0,0-1.36-2.836,2.246,2.246,0,0,0-2.72,1.63c-1.045,3.222-2.09,6.444-3.112,9.674a1.349,1.349,0,0,0,.04.868,4.26,4.26,0,0,1-1.8,5.575c-1.049.62-2.109,1.221-3.165,1.83-.94.543-1.878,1.091-2.823,1.625a.892.892,0,0,1-1.212-.148,1.679,1.679,0,0,1-.274-1.135c.037-.255.392-.518.663-.679,1.889-1.115,3.792-2.2,5.692-3.3a2.1,2.1,0,0,0,1.162-1.6,2.032,2.032,0,0,0-.907-2.075,2.107,2.107,0,0,0-2.381-.007q-4.529,2.657-9.062,5.309a7.437,7.437,0,0,0-3.9,6.8c-.008,3.039,0,6.077,0,9.116v.648Zm-11.665,8.481h12.694V112.61H186.258ZM203.33,86.474c.068-.186.126-.329.173-.475.939-2.9,1.884-5.8,2.811-8.71a4.331,4.331,0,0,1,2.506-2.838,12.411,12.411,0,0,1,1.581-.44A2.064,2.064,0,0,0,208.738,72a2.237,2.237,0,0,0-2.473,1.56q-1.854,5.324-3.7,10.653c-.213.614-.423,1.23-.639,1.855l1.4.408" transform="translate(-151.352 -57.411)"/>
    <path id="Path_997" data-name="Path 997" d="M94.059,3.084a10.656,10.656,0,0,1,18.125,7.978,10.784,10.784,0,0,1-3.256,7.287q-6.921,6.912-13.835,13.833c-.848.848-1.291.854-2.119.026-4.705-4.706-9.45-9.372-14.1-14.129A10.6,10.6,0,0,1,83.157.574,10.345,10.345,0,0,1,93.537,2.695c.135.114.267.232.4.346a.588.588,0,0,0,.12.043m-.093,27.152c.155-.126.228-.174.288-.235,4.483-4.485,9-8.939,13.438-13.467A8.5,8.5,0,0,0,95.653,4.526c-.273.26-.531.536-.807.792A1.077,1.077,0,0,1,93.2,5.33c-.309-.286-.594-.6-.9-.886a8.514,8.514,0,0,0-11.7,12.37q5.488,5.518,11,11.01c.782.783,1.55,1.582,2.363,2.412" transform="translate(-62.353 0)"/>
    <path id="Path_998" data-name="Path 998" d="M146.813,51.461c0,1.074.008,2.048,0,3.021a1.086,1.086,0,0,1-1.223,1.234q-1.961.018-3.923,0c-.854-.007-1.23-.4-1.237-1.286-.008-.969,0-1.938,0-2.97-1.012,0-1.959,0-2.906,0-.989-.005-1.348-.371-1.351-1.374,0-1.241-.007-2.483,0-3.724.006-.909.384-1.281,1.3-1.287.951-.007,1.9,0,2.954,0,0-.97,0-1.912,0-2.855,0-1.048.35-1.4,1.388-1.4q1.828-.005,3.657,0c.96,0,1.333.371,1.34,1.318s0,1.9,0,2.939c.982,0,1.927,0,2.87,0,1.036,0,1.385.356,1.388,1.4,0,1.241.008,2.483,0,3.724-.007.864-.4,1.248-1.268,1.256-.97.009-1.941,0-2.988,0m-2.129,2.116c0-1,0-1.948,0-2.895,0-.989.368-1.345,1.373-1.349.945,0,1.889,0,2.839,0V47.2c-.973,0-1.9,0-2.828,0-1.032,0-1.381-.359-1.384-1.407,0-.942,0-1.884,0-2.817h-2.13c0,.98,0,1.926,0,2.873-.005.986-.372,1.346-1.375,1.351-.945,0-1.889,0-2.837,0v2.083a1.013,1.013,0,0,0,.172.04c.864,0,1.727,0,2.591.007,1.12,0,1.447.336,1.449,1.475,0,.92,0,1.84,0,2.77Z" transform="translate(-111.954 -33.556)"/>
  </g>
</svg>
