<svg id="Group_1657" data-name="Group 1657" xmlns="http://www.w3.org/2000/svg" xmlns:xlink="http://www.w3.org/1999/xlink" width="66.141" height="62.519" viewBox="0 0 66.141 62.519">
  <defs>
    <clipPath id="clip-path">
      <rect id="Rectangle_1779" data-name="Rectangle 1779" width="66.141" height="62.519" fill="none"/>
    </clipPath>
  </defs>
  <g id="Group_1656" data-name="Group 1656" clip-path="url(#clip-path)">
    <path id="Path_994" data-name="Path 994" d="M66.141,61.452a1.872,1.872,0,0,1-1.932,1.067Q33.081,62.5,1.953,62.506C.451,62.506,0,62.05,0,60.529c0-.431,0-.861,0-1.292A2.313,2.313,0,0,1,2.123,56.76c.083-.015.163-.044.326-.089,0-.478-.012-.965,0-1.452a2.276,2.276,0,0,1,2.284-2.31c.9-.029,1.8-.006,2.784-.006,0-.621,0-1.173,0-1.725A2.029,2.029,0,0,1,9.3,48.871c0-.6,0-1.214,0-1.832,0-.938.314-1.4.953-1.407s.982.455.985,1.377c0,.56,0,1.119.005,1.679a1.921,1.921,0,0,0,.042.227H14.3v-19.7H11.24V29.9q0,5.812,0,11.625a3.069,3.069,0,0,1-.029.643.952.952,0,0,1-1.883-.013,3.724,3.724,0,0,1-.026-.708q0-6.1,0-12.191c-1.517-.6-1.781-.99-1.781-2.6,0-.467,0-.934,0-1.471-.87,0-1.661.008-2.452,0a1.879,1.879,0,0,1-2.081-2.077c-.007-.554,0-1.109,0-1.692C2.413,21.38,1.9,21.384,1.4,21.31A1.384,1.384,0,0,1,.11,19.934c-.042-.47,0-.947-.033-1.419A1.841,1.841,0,0,1,1.23,16.622c4.2-2.178,8.381-4.385,12.57-6.581,6.112-3.205,12.23-6.4,18.328-9.628a2.642,2.642,0,0,1,2.846.006c1.255.747,2.563,1.406,3.851,2.1a1.077,1.077,0,0,1,.718,1.043c-.045.75-.777,1.107-1.538.709-1.3-.677-2.587-1.364-3.854-2.094a1.122,1.122,0,0,0-1.232.008q-15.1,7.944-30.212,15.851c-.6.315-.843.665-.6,1.35H64.049a1,1,0,0,0-.581-1.355Q53.036,12.439,42.637,6.787a4.2,4.2,0,0,1-.6-.368.888.888,0,0,1-.274-1.2.914.914,0,0,1,1.159-.446,3.011,3.011,0,0,1,.58.277q10.666,5.767,21.338,11.525a1.96,1.96,0,0,1,1.228,2.046c-.027.321,0,.646-.006.968a1.6,1.6,0,0,1-1.8,1.786c-.341.009-.682,0-1.105,0,0,.6,0,1.154,0,1.707a1.891,1.891,0,0,1-2.118,2.106c-.771.007-1.543,0-2.415,0,0,.558,0,1.065,0,1.572,0,1.509-.339,1.984-1.763,2.469V48.84c1.472.561,1.762.98,1.763,2.534,0,.472,0,.944,0,1.524.739,0,1.443.044,2.138-.008A2.492,2.492,0,0,1,63.7,55.8c-.027.276,0,.557,0,.911a2.616,2.616,0,0,1,2.445,1.769ZM16.317,29.2V48.881a2.015,2.015,0,0,1,1.747,2.3c0,.552,0,1.1,0,1.717h2.989c0-.569,0-1.041,0-1.513,0-1.593.267-1.984,1.754-2.542v-19.6c-1.486-.564-1.753-.953-1.754-2.539,0-.487,0-.973,0-1.464H18.065c0,.588,0,1.125,0,1.661a2.007,2.007,0,0,1-1.747,2.3m27.018.04v19.6c1.509.58,1.753.946,1.754,2.606V52.9h2.989c0-.576,0-1.047,0-1.519,0-1.562.3-2,1.748-2.527V29.2a2.006,2.006,0,0,1-1.747-2.3c0-.552,0-1.1,0-1.717H45.089V26.7c0,1.594-.272,1.99-1.754,2.539m-8.758-4.051c-.955,0-1.793,0-2.63,0a3.235,3.235,0,0,0-.382.054c0,.532,0,1.042,0,1.552,0,1.483-.314,1.926-1.72,2.429V48.874c1.348.435,1.713.93,1.719,2.307,0,.551,0,1.1,0,1.664h3.013c0-.5,0-.947,0-1.395,0-1.655.215-1.982,1.727-2.622V29.237c-1.44-.542-1.725-.958-1.727-2.494,0-.489,0-.979,0-1.555M1.98,60.527H64.2a7.364,7.364,0,0,0-.023-1.316.9.9,0,0,0-.5-.512,1.852,1.852,0,0,0-.7-.025q-29.7,0-59.394,0c-1.7,0-1.719-.363-1.6,1.847m59.741-3.836c.013-.178.03-.324.033-.47.025-1.382.025-1.382-1.335-1.382H5.6c-.215,0-.431,0-.646,0-.367-.005-.566.157-.563.539,0,.426,0,.851,0,1.313Zm-.538-35.26H4.969V23.2H61.184ZM24.823,48.875h3V29.187h-3Zm13.494,0h3.006V29.2H38.317Zm13.535,0h3v-19.7h-3ZM9.493,27.188H16.08V25.243H9.493Zm40.555,0h6.591V25.24H50.048ZM16.093,50.908H9.518V52.85h6.575Zm40.558-.015H50.062v1.948h6.589ZM23.04,27.189h6.54V25.222H23.04Zm20.084-1.967H36.575v1.965h6.549ZM29.593,50.906h-6.55v1.947h6.55Zm6.967,1.938H43.1V50.891H36.56Z" transform="translate(0 0)"/>
  </g>
</svg>
