<svg id="Group_1644" data-name="Group 1644" xmlns="http://www.w3.org/2000/svg" xmlns:xlink="http://www.w3.org/1999/xlink" width="69.881" height="70.087" viewBox="0 0 69.881 70.087">
  <defs>
    <clipPath id="clip-path">
      <rect id="Rectangle_1773" data-name="Rectangle 1773" width="69.881" height="70.087" fill="none"/>
    </clipPath>
  </defs>
  <g id="Group_1643" data-name="Group 1643" clip-path="url(#clip-path)">
    <path id="Path_954" data-name="Path 954" d="M69.881,166.341c-1.105,2.314-2.99,4.038-4.575,5.983-2.659,3.264-5.414,6.45-8.088,9.7a11.886,11.886,0,0,1-9.542,4.486c-5.873.04-11.748.066-17.621-.02-2.058-.03-3.34,1.088-4.585,2.416-.1.107-.072.376-.041.559a4.177,4.177,0,0,1-1.17,3.884q-3.18,3.145-6.37,6.281a1.409,1.409,0,0,1-2.305,0Q8.073,192.073.573,184.507a1.41,1.41,0,0,1-.015-2.258q3.124-3.154,6.266-6.289a4.264,4.264,0,0,1,3.33-1.295.824.824,0,0,0,.629-.335c4.539-7.958,14.454-9.913,21.584-7.172a3.231,3.231,0,0,0,1.127.191c4.667.013,9.334.03,14,0a6.059,6.059,0,0,1,5.041,2.249,2.469,2.469,0,0,1,.313-.676c2.529-2.621,5.075-5.226,7.61-7.841a5.456,5.456,0,0,1,9.3,1.823.823.823,0,0,0,.117.161ZM23.694,186.764c.147-.134.326-.272.477-.437a7.9,7.9,0,0,1,6.348-2.561c5.667.084,11.336.036,17,.022a9.024,9.024,0,0,0,7.224-3.1c3.96-4.668,7.867-9.381,11.792-14.079a2.746,2.746,0,1,0-4.084-3.661c-2.713,2.791-5.416,5.591-8.149,8.362a1.918,1.918,0,0,0-.736,1.7,3.283,3.283,0,0,1-.178,1.206,5.475,5.475,0,0,1-5.6,4.095c-3.232.014-6.465,0-9.7,0a11.517,11.517,0,0,1-1.228-.025,1.353,1.353,0,0,1,.054-2.7c.226-.019.455-.015.682-.015q5.019,0,10.039,0a5.807,5.807,0,0,0,1.019-.07,2.7,2.7,0,0,0,2.148-3.085,2.774,2.774,0,0,0-3.058-2.322c-4.871-.007-9.743.007-14.614-.016a5.094,5.094,0,0,1-1.584-.3c-5.565-1.9-10.754-1.334-15.44,2.374a11.634,11.634,0,0,0-3.12,3.9l10.7,10.711m-20.427-3.4,13.827,13.544c1.638-1.721,3.376-3.554,5.123-5.379a1.416,1.416,0,0,0-.026-2.3q-2.358-2.375-4.724-4.741-3.312-3.3-6.636-6.6a1.267,1.267,0,0,0-1.935-.107c-1.874,1.826-3.718,3.682-5.629,5.581" transform="translate(0 -130.143)"/>
    <path id="Path_955" data-name="Path 955" d="M132.3,0c.2.086.4.18.611.257a3.977,3.977,0,0,1,2.671,3.688q.03,10.546,0,21.093a3.977,3.977,0,0,1-3.983,3.942c-2.434.038-4.87.012-7.3.012q-12.7,0-25.4,0a4.056,4.056,0,0,1-4.218-3.153,6,6,0,0,1-.108-1.354q-.01-9.966,0-19.932c0-2.416.9-3.665,3.212-4.46.037-.013.063-.06.094-.091H132.3m.562,13.721H97.347a2.359,2.359,0,0,0-.045.305c0,3.6-.009,7.191,0,10.787,0,.968.535,1.444,1.584,1.445q16.183.007,32.366,0c1.134,0,1.6-.487,1.6-1.638.005-2.23,0-4.46,0-6.691,0-1.385,0-2.771,0-4.208M97.328,10.9H132.8V8.249H97.328Zm35.5-5.447c.012-.2.024-.328.027-.46.036-1.943-.272-2.253-2.224-2.253h-31.4a6.339,6.339,0,0,0-.682.009,1.225,1.225,0,0,0-1.184.966,9.772,9.772,0,0,0-.022,1.738Z" transform="translate(-77.307)"/>
    <path id="Path_956" data-name="Path 956" d="M166.424,249.135a1.36,1.36,0,0,1-1.35,1.336,1.4,1.4,0,0,1-1.371-1.4,1.372,1.372,0,0,1,1.435-1.32,1.333,1.333,0,0,1,1.286,1.385" transform="translate(-133.832 -202.543)"/>
    <path id="Path_957" data-name="Path 957" d="M248.612,116.614c-.886,0-1.773.012-2.659,0a1.358,1.358,0,1,1-.063-2.713q2.726-.045,5.454,0a1.357,1.357,0,1,1-.073,2.712c-.886.016-1.773,0-2.659,0" transform="translate(-199.896 -93.096)"/>
    <path id="Path_958" data-name="Path 958" d="M215.92,116.689a1.343,1.343,0,0,1-1.39-1.354,1.363,1.363,0,1,1,2.726.012,1.343,1.343,0,0,1-1.336,1.342" transform="translate(-175.385 -93.176)"/>
  </g>
</svg>
