<svg xmlns="http://www.w3.org/2000/svg" xmlns:xlink="http://www.w3.org/1999/xlink" width="57.319" height="57.319" viewBox="0 0 57.319 57.319">
  <defs>
    <clipPath id="clip-path">
      <rect id="Rectangle_1776" data-name="Rectangle 1776" width="57.319" height="57.319" fill="none"/>
    </clipPath>
  </defs>
  <g id="Group_1652" data-name="Group 1652" transform="translate(-774 -754)">
    <g id="Group_1651" data-name="Group 1651" transform="translate(774 754)">
      <g id="Group_1650" data-name="Group 1650" clip-path="url(#clip-path)">
        <path id="Path_964" data-name="Path 964" d="M22.82,57.319c-.1-1.564-.207-3.128-.288-4.694a.5.5,0,0,0-.441-.527,22.367,22.367,0,0,1-5.406-2.243.486.486,0,0,0-.679.067c-.951.868-1.922,1.714-2.887,2.568-.194.171-.391.339-.547.475L4.331,44.707l2.641-2.983c.646-.73.588-.705.208-1.579-.7-1.6-1.333-3.232-1.96-4.864-.129-.336-.239-.516-.636-.533-1.4-.062-2.794-.166-4.191-.256-.126-.008-.251-.023-.394-.037V22.819c1.532-.1,3.036-.2,4.543-.275a.625.625,0,0,0,.678-.551A21.341,21.341,0,0,1,7.4,16.742a.576.576,0,0,0-.1-.813c-1.015-1.117-2.006-2.257-2.961-3.337l8.253-8.253.993.877c.8.7,1.6,1.4,2.386,2.12a.517.517,0,0,0,.723.1,21.6,21.6,0,0,1,5.352-2.225.563.563,0,0,0,.491-.608c.076-1.525.183-3.048.28-4.6H34.477c.079,1.353.158,2.689.234,4.026.059,1.021.082.959,1,1.318,1.644.645,3.261,1.359,4.874,2.078a.551.551,0,0,0,.725-.075c1.007-.918,2.035-1.812,3.057-2.714.137-.121.282-.233.39-.323l8.232,8.232c-.437.5-.91,1.043-1.387,1.583-.556.63-1.108,1.263-1.676,1.882a.45.45,0,0,0-.095.627,22.8,22.8,0,0,1,2.29,5.508.458.458,0,0,0,.505.386c1.565.091,3.129.194,4.694.293V34.469c-1.546.1-3.091.206-4.638.282a.562.562,0,0,0-.6.5,22.279,22.279,0,0,1-2.2,5.3.548.548,0,0,0,.073.768c1.028,1.13,2.031,2.284,3,3.378l-3.506,3.542-.982-1.1,2.352-2.325L47.7,41.3c.83-1.833,1.646-3.564,2.393-5.323a10.173,10.173,0,0,0,.611-2.146c.1-.568.376-.693.9-.709,1.322-.04,2.642-.141,4-.22V24.389c-1.419-.081-2.829-.163-4.239-.242-.267-.015-.485-.019-.566-.383a22.77,22.77,0,0,0-3.226-7.624l3.1-3.513L44.669,6.608l-3.511,3.1A22.826,22.826,0,0,0,35.722,7.1a20.61,20.61,0,0,0-2.047-.561c-.42-.086-.526-.286-.543-.678C33.073,4.48,32.98,3.1,32.9,1.689h-8.5c-.081,1.375-.182,2.746-.231,4.12a.656.656,0,0,1-.609.743,22.431,22.431,0,0,0-7.414,3.164L12.617,6.6,6.6,12.615l3.071,3.474a32.756,32.756,0,0,0-1.6,3.036c-.6,1.48-1.073,3.014-1.552,4.54-.112.356-.253.471-.6.488-1.4.067-2.793.159-4.228.244v8.492c1.371.083,2.742.186,4.115.237a.656.656,0,0,1,.744.607,22.4,22.4,0,0,0,3.165,7.418L6.606,44.674l6.013,6.01,3.419-3.023c1.507.729,2.936,1.491,4.421,2.116a24.907,24.907,0,0,0,3.2.989.548.548,0,0,1,.494.6c.064,1.4.155,2.794.238,4.232h8.5c.08-1.327.185-2.66.228-4,.017-.526.159-.772.714-.893a22.036,22.036,0,0,0,7.318-3.134l3.611,3.188,2.293-2.434,1.2,1.153-3.516,3.5c-.161-.139-.369-.315-.574-.5-.965-.853-1.933-1.7-2.889-2.565a.454.454,0,0,0-.628-.091,22.963,22.963,0,0,1-5.507,2.29.456.456,0,0,0-.386.5c-.091,1.565-.193,3.129-.292,4.693Z" transform="translate(0.5)"/>
        <path id="Path_965" data-name="Path 965" d="M97.018,76.847A20.161,20.161,0,1,1,76.849,56.695,20.195,20.195,0,0,1,97.018,76.847M67.141,68.8a12.921,12.921,0,0,1,6.636-4.226v.69c0,3.51.006,7.019-.009,10.529a.683.683,0,0,0,.447.729c.778.36,1.53.775,2.31,1.129a.9.9,0,0,0,.663,0c.764-.344,1.5-.759,2.262-1.1a.752.752,0,0,0,.5-.813c-.016-3.491-.009-6.982-.009-10.473v-.723c.483.169.883.3,1.28.448a12.631,12.631,0,0,1,6.38,18.41,12.924,12.924,0,0,1-4.541,4.392A2.35,2.35,0,0,0,81.682,89.7c-.058,1.62-.028,3.244-.031,4.866" transform="translate(-48.212 -48.211)"/>
        <rect id="Rectangle_1774" data-name="Rectangle 1774" width="1.619" height="1.597" transform="translate(26.155 3.372)"/>
        <rect id="Rectangle_1775" data-name="Rectangle 1775" width="1.592" height="1.631" transform="translate(29.529 3.346)"/>
        <circle id="Ellipse_166" data-name="Ellipse 166" cx="17.5" cy="17.5" r="17.5" transform="translate(11.5 11.44)" fill="#fff"/>
      </g>
    </g>
  </g>
</svg>
