<svg id="Group_1655" data-name="Group 1655" xmlns="http://www.w3.org/2000/svg" xmlns:xlink="http://www.w3.org/1999/xlink" width="71.982" height="69.422" viewBox="0 0 71.982 69.422">
  <defs>
    <clipPath id="clip-path">
      <rect id="Rectangle_1778" data-name="Rectangle 1778" width="71.982" height="69.422" fill="none"/>
    </clipPath>
  </defs>
  <g id="Group_1655-2" data-name="Group 1655" clip-path="url(#clip-path)">
    <path id="Path_972" data-name="Path 972" d="M0,156.713a3.657,3.657,0,0,1,.6-.547,1.073,1.073,0,0,1,1.595.955c.115.923.17,1.856.212,2.786a1.105,1.105,0,0,1-1,1.275,1.151,1.151,0,0,1-1.162-1.073c-.087-.475-.166-.952-.249-1.428v-1.968" transform="translate(0 -120.305)"/>
    <path id="Path_973" data-name="Path 973" d="M74.9,14.627c.372-1.235.743-2.393,1.055-3.566a.868.868,0,0,0-.246-.686c-1.22-1.2-2.512-2.326-3.686-3.566a4.2,4.2,0,0,0-1.834-1.191c-1.052-.335-1.413-.795-1.259-1.468s.683-.9,1.727-.746a12.858,12.858,0,0,1,1.055-1.872,3.712,3.712,0,0,1,5.817-.242c1.1,1.149,2.207,2.3,3.265,3.489a1.18,1.18,0,0,0,1.439.411C85.695,4.1,89.175,3.085,92.633,2a1.634,1.634,0,0,1,1.936.5c.605.682,1.286,1.3,1.928,1.947.841.852.756,1.539-.288,2.123q-4.226,2.365-8.465,4.71c-.142.079-.276.171-.5.311l1.637,1.736c.691.733,1.395,1.454,2.068,2.2a.729.729,0,0,0,.909.252c.859-.3,1.753-.507,2.613-.806a1.445,1.445,0,0,1,1.75.471c.472.551,1.007,1.047,1.5,1.582a1.085,1.085,0,0,1-.283,1.9c-1.53.86-3.085,1.674-4.612,2.539a1.989,1.989,0,0,0-.714.717c-.83,1.466-1.619,2.955-2.43,4.431-.61,1.11-1.232,1.192-2.134.29-.53-.53-1.054-1.066-1.59-1.59a1.236,1.236,0,0,1-.345-1.4c.312-.931.6-1.872.844-2.822a.881.881,0,0,0-.141-.725c-1.306-1.276-2.645-2.518-4.062-3.853-.608,1.1-1.21,2.139-1.753,3.21-.075.148.091.478.227.664a25.829,25.829,0,0,1,2.208,26.977A25.309,25.309,0,0,1,69.12,59.823a24.449,24.449,0,0,1-13.941,1.26c-9.411-1.934-16.094-7.368-19.454-16.348-3.337-8.918-1.95-17.384,3.857-24.98a24.717,24.717,0,0,1,16.156-9.567,25.143,25.143,0,0,1,17.89,3.634c.4.247.789.5,1.276.806M36.45,36.427c.289,15.279,15.357,25.712,28.732,22.16,0-.983-.081-1.97.016-2.938a11.193,11.193,0,0,1,3.637-6.723c1.807-1.83,3.809-3.467,5.632-5.283a10.871,10.871,0,0,0,3.506-6.852,5.275,5.275,0,0,1,1.44-3.71,22.342,22.342,0,0,1,2.935-2.138c.5-.32.77-.556.53-1.192-.445-1.179-.722-2.428-1.24-3.571-.66-1.458-1.489-2.839-2.314-4.381-.753,1.361-1.392,2.53-2.046,3.691-.553.981-1.224,1.08-2.012.31-.737-.72-1.457-1.459-2.21-2.162a1.384,1.384,0,0,1-.4-1.582c.5-1.582.956-3.179,1.462-4.76a.645.645,0,0,0-.284-.863,23.525,23.525,0,0,0-7.146-3.509c-.584-.17-1.178-.306-1.791-.463,0,.145-.009.175,0,.191.1.158.206.313.3.472a6.915,6.915,0,0,1,.835,6.106,12.144,12.144,0,0,1-3.188,4.978c-2.725,2.6-5.57,5.08-8.307,7.67a16.291,16.291,0,0,0-2.314,2.8,1.879,1.879,0,0,0,.367,2.6,4.685,4.685,0,0,0,1.045.819c.983.54,2.023.979,2.986,1.55a20.452,20.452,0,0,1,3.188,2.136c1.409,1.247.97,2.971-.819,3.609a13.943,13.943,0,0,1-8.767.089,20.533,20.533,0,0,1-7.457-4.36c-1.7-1.434-3.424-2.831-5.165-4.212a4.8,4.8,0,0,0-1.154-.485m21.763,6.945.113-.271c-.919-.538-1.826-1.1-2.758-1.611-1.227-.677-2.526-1.238-3.7-1.994-2.342-1.51-2.818-3.635-1.454-6.067a5.552,5.552,0,0,1,.887-1.259c1.551-1.525,3.141-3.01,4.712-4.515,2.11-2.022,4.313-3.96,6.29-6.1A6.031,6.031,0,0,0,64,16.188,6.916,6.916,0,0,0,61.826,12.5a1.536,1.536,0,0,0-.957-.423,36.032,36.032,0,0,0-3.923.165,22.368,22.368,0,0,0-10.215,3.836A23.136,23.136,0,0,0,37.1,29.863c-.365,1.433-.514,2.921-.767,4.4a5.936,5.936,0,0,1,3.281,1.382c1.643,1.357,3.255,2.751,4.891,4.116a16.425,16.425,0,0,0,7.985,4.023,11.232,11.232,0,0,0,5.724-.416M94.23,5.283c-.888-1.221-.888-1.22-2.178-.83-3.4,1.028-6.807,2.04-10.2,3.092a1.549,1.549,0,0,1-1.809-.48c-1.31-1.435-2.668-2.827-4-4.243a1.627,1.627,0,0,0-1.487-.611,1.945,1.945,0,0,0-1.577,1.332,1.477,1.477,0,0,0,.469,1.711C74.822,6.561,76.174,7.9,77.6,9.142a1.846,1.846,0,0,1,.573,2.231c-1.021,3.232-1.928,6.5-3,9.714a1.7,1.7,0,0,0,.633,2.3.775.775,0,0,0,.166.051c.125-.208.261-.421.384-.641q2.294-4.1,4.585-8.209c.579-1.036,1.191-1.141,2.055-.332,1.8,1.679,3.574,3.378,5.38,5.047a1.409,1.409,0,0,1,.422,1.637c-.292.888-.514,1.8-.821,2.682-.166.475-.034.755.439,1.023.691-1.278,1.347-2.564,2.08-3.8a3.113,3.113,0,0,1,1.05-1.05c1.243-.738,2.531-1.4,3.8-2.089a.767.767,0,0,0-1.072-.426c-.858.3-1.749.517-2.611.811a1.434,1.434,0,0,1-1.689-.452c-1.628-1.779-3.289-3.529-4.935-5.292-.9-.963-.8-1.556.348-2.192Q88.4,8.49,91.417,6.84c.937-.516,1.872-1.036,2.813-1.557M67.355,58.063C80.068,53.853,84.9,41.106,83.322,32.785c-1.812.918-3.138,2.157-3.274,4.358a10.567,10.567,0,0,1-2.9,6.623c-1.632,1.764-3.4,3.413-5.173,5.035a19.4,19.4,0,0,0-3.625,4.169,7.259,7.259,0,0,0-.99,5.093" transform="translate(-26.174 0)"/>
    <path id="Path_974" data-name="Path 974" d="M287.793,152.845c-.037.447-.065,1.1-.153,1.749a1.033,1.033,0,0,1-1.162.962.99.99,0,0,1-.981-1.069c.017-1.074.057-2.149.136-3.221a1.014,1.014,0,0,1,1.126-.993,1.051,1.051,0,0,1,1.03,1.1c.021.42,0,.841,0,1.469" transform="translate(-220.144 -115.874)"/>
    <path id="Path_975" data-name="Path 975" d="M107.085,291.228c-.9-.23-2.016-.475-3.1-.808a1.066,1.066,0,0,1,.6-2.038c1.026.212,2.049.439,3.065.692a1.054,1.054,0,0,1,.866,1.233c-.1.581-.56.929-1.43.92" transform="translate(-79.635 -222.346)"/>
    <path id="Path_976" data-name="Path 976" d="M118.957,8.577c1.035-.031,1.531.332,1.6.954a1.091,1.091,0,0,1-1.015,1.2c-.986.174-1.981.311-2.977.419a1.025,1.025,0,0,1-1.22-.878,1.046,1.046,0,0,1,.858-1.245c1-.2,2.023-.335,2.754-.452" transform="translate(-88.93 -6.612)"/>
    <path id="Path_977" data-name="Path 977" d="M1.158,123.4c.138-.751.3-1.813.537-2.859a1.048,1.048,0,0,1,1.278-.813A1.09,1.09,0,0,1,3.8,121c-.156.992-.326,1.982-.52,2.967a1.074,1.074,0,0,1-1.238.966c-.577-.077-.908-.529-.887-1.535" transform="translate(-0.892 -92.298)"/>
    <path id="Path_978" data-name="Path 978" d="M153.149,7.91c.751.09,1.611.179,2.467.3a1.111,1.111,0,1,1-.2,2.2c-.977-.08-1.953-.2-2.922-.347a1.041,1.041,0,0,1-.987-1.206,1.074,1.074,0,0,1,1.18-.95c.117,0,.234,0,.461,0" transform="translate(-116.819 -6.099)"/>
    <path id="Path_979" data-name="Path 979" d="M86.709,17.7c-.144.159-.354.557-.682.721-.892.448-1.825.821-2.758,1.179a1.05,1.05,0,0,1-1.461-.552,1.067,1.067,0,0,1,.61-1.443c.906-.422,1.827-.822,2.767-1.158.805-.288,1.537.237,1.524,1.251" transform="translate(-63.007 -12.625)"/>
    <path id="Path_980" data-name="Path 980" d="M213.082,272.963a2.857,2.857,0,0,1-.627.762c-.776.517-1.6.966-2.422,1.411a1.107,1.107,0,0,1-1.586-.368,1.065,1.065,0,0,1,.467-1.5c.833-.518,1.672-1.036,2.55-1.468.808-.4,1.6.09,1.617,1.161" transform="translate(-160.618 -209.478)"/>
    <path id="Path_981" data-name="Path 981" d="M141.706,293.512c.468,0,.938-.019,1.4,0a1.065,1.065,0,0,1,1.057,1.013,1.016,1.016,0,0,1-.938,1.114,30.8,30.8,0,0,1-3.226.086,1.07,1.07,0,0,1-.049-2.129c.579-.055,1.168-.012,1.752-.012v-.076" transform="translate(-107.195 -226.319)"/>
    <path id="Path_982" data-name="Path 982" d="M7.127,191.392c.156.146.582.372.733.718a28.115,28.115,0,0,1,1.007,2.839,1.084,1.084,0,0,1-.648,1.379,1.064,1.064,0,0,1-1.391-.621c-.381-.979-.729-1.975-1.017-2.985-.2-.713.321-1.319,1.316-1.33" transform="translate(-4.448 -147.581)"/>
    <path id="Path_983" data-name="Path 983" d="M43.54,251.838a6.217,6.217,0,0,1,.879.514c.691.59,1.363,1.2,2.03,1.819a1.117,1.117,0,0,1,.217,1.61,1.066,1.066,0,0,1-1.613.068,21.39,21.39,0,0,1-2.2-2.038,1.433,1.433,0,0,1-.207-1.2c.1-.314.57-.51.9-.775" transform="translate(-32.843 -194.19)"/>
    <path id="Path_984" data-name="Path 984" d="M239.067,252.931c-.235-.2-.644-.4-.763-.7a1.262,1.262,0,0,1,.11-1.085,27.754,27.754,0,0,1,2.337-2.31.939.939,0,0,1,1.338.073.911.911,0,0,1,.194,1.32c-.8.877-1.675,1.679-2.539,2.492-.119.112-.344.112-.678.21" transform="translate(-183.699 -191.683)"/>
    <path id="Path_985" data-name="Path 985" d="M28.124,61.1c-.886-.018-1.49-.854-1.082-1.481a23.718,23.718,0,0,1,2.194-2.79.917.917,0,0,1,1.332.024.936.936,0,0,1,.254,1.313c-.665.924-1.4,1.8-2.135,2.67-.146.172-.445.213-.563.265" transform="translate(-20.751 -43.609)"/>
    <path id="Path_986" data-name="Path 986" d="M75.363,276.557c-.02.949-.767,1.486-1.487,1.156a28.378,28.378,0,0,1-2.835-1.518.984.984,0,0,1-.347-1.41.963.963,0,0,1,1.315-.478,32.413,32.413,0,0,1,2.947,1.6c.235.142.328.519.407.653" transform="translate(-54.39 -211.436)"/>
    <path id="Path_987" data-name="Path 987" d="M24.036,228.151c-.256.3-.462.731-.783.847a1.246,1.246,0,0,1-1.119-.17,24.989,24.989,0,0,1-1.939-2.889.84.84,0,0,1,.394-1.2c.348-.153,1.034-.2,1.193,0,.774.978,1.422,2.056,2.11,3.1.034.052.017.137.024.206l.12.105" transform="translate(-15.483 -173.191)"/>
    <path id="Path_988" data-name="Path 988" d="M13.356,87.662a4.65,4.65,0,0,1-.177.568c-.334.773-.678,1.541-1.027,2.307-.339.746-.883,1.023-1.5.773a1.113,1.113,0,0,1-.542-1.588q.554-1.326,1.192-2.616a1.006,1.006,0,0,1,1.234-.568,1.068,1.068,0,0,1,.816,1.124" transform="translate(-7.698 -66.696)"/>
    <path id="Path_989" data-name="Path 989" d="M278.935,191.462c-.824-.016-1.353-.616-1.18-1.282.263-1.014.576-2.017.923-3.005a1.031,1.031,0,0,1,1.368-.643,1.07,1.07,0,0,1,.684,1.3c-.266.966-.57,1.922-.885,2.873a.991.991,0,0,1-.909.761" transform="translate(-214.149 -143.782)"/>
    <path id="Path_990" data-name="Path 990" d="M52.641,36.958c-.215-.185-.656-.391-.77-.712a1.274,1.274,0,0,1,.181-1.129,24.011,24.011,0,0,1,2.657-2.03.942.942,0,0,1,1.308.284.9.9,0,0,1,.023,1.276c-.914.786-1.907,1.479-2.876,2.2-.084.062-.223.051-.523.111" transform="translate(-39.954 -25.39)"/>
    <path id="Path_991" data-name="Path 991" d="M265.375,220.592a3.776,3.776,0,0,1-.211.718c-.522.882-1.04,1.768-1.606,2.621a1.071,1.071,0,0,1-1.481.32,1.047,1.047,0,0,1-.346-1.47c.494-.871,1.021-1.723,1.561-2.566a.963.963,0,0,1,1.271-.435c.346.171.58.57.812.812" transform="translate(-201.691 -169.393)"/>
    <path id="Path_992" data-name="Path 992" d="M284.223,118.628c.016.725-.261,1.168-.87,1.283a1,1,0,0,1-1.237-.77c-.256-.994-.481-2-.651-3.01a1.075,1.075,0,0,1,2.09-.473c.271,1.013.464,2.047.668,2.971" transform="translate(-217.021 -88.586)"/>
    <path id="Path_993" data-name="Path 993" d="M175.974,289.757c-.718-.066-1.1-.326-1.222-.879a.952.952,0,0,1,.61-1.2c1.041-.341,2.1-.631,3.172-.868a.953.953,0,0,1,1.133.73.93.93,0,0,1-.5,1.246c-1.094.4-2.226.684-3.193.971" transform="translate(-134.725 -221.137)"/>
  </g>
</svg>
