<svg xmlns="http://www.w3.org/2000/svg" width="10.386" height="9.54" viewBox="0 0 19.386 14.54">
  <path id="Icon_awesome-hand-point-right" data-name="Icon awesome-hand-point-right" d="M19.386,9.636a1.707,1.707,0,0,1-1.7,1.659H13.909a1.862,1.862,0,0,1-.238,2.686,1.734,1.734,0,0,1-.623,2.359c.34,1.861-.831,2.7-2.749,2.7-.1,0-.5-.008-.606-.007-2.346.006-2.911-1.176-4.685-1.451a.908.908,0,0,1-.767-.9V10.189h0a1.817,1.817,0,0,1,1.078-1.66C6.412,8.037,8.931,6.672,9.39,5.6A1.614,1.614,0,0,1,10.9,4.5a1.819,1.819,0,0,1,1.67,2.533,5.146,5.146,0,0,1-.536.943h5.65A1.735,1.735,0,0,1,19.386,9.636ZM3.635,9.649v7.27a.909.909,0,0,1-.909.909H.909A.909.909,0,0,1,0,16.919V9.649a.909.909,0,0,1,.909-.909H2.726A.909.909,0,0,1,3.635,9.649ZM2.575,16.01a.757.757,0,1,0-.757.757A.757.757,0,0,0,2.575,16.01Z" transform="translate(0 -4.5)" fill="#f75c29"/>
</svg>
