<svg xmlns="http://www.w3.org/2000/svg" width="54.786" height="54.786" viewBox="0 0 54.786 54.786">
  <path id="Icon_ionic-logo-whatsapp" data-name="Icon ionic-logo-whatsapp" d="M30.14,2.25A26.792,26.792,0,0,0,3.245,28.938,26.412,26.412,0,0,0,7.1,42.718L2.25,57.036l14.89-4.73a26.941,26.941,0,0,0,39.9-23.368A26.792,26.792,0,0,0,30.14,2.25ZM43.513,39.073c-.633,1.569-3.494,3-4.757,3.066s-1.3.978-8.174-2.01S19.57,29.876,19.244,29.408s-2.663-3.8-2.537-7.148a7.621,7.621,0,0,1,2.617-5.592,2.634,2.634,0,0,1,1.863-.784c.541-.009.892-.016,1.293,0s1-.084,1.523,1.3,1.766,4.788,1.926,5.135a1.246,1.246,0,0,1,.012,1.195,4.671,4.671,0,0,1-.729,1.111c-.359.385-.755.861-1.075,1.156-.357.326-.73.681-.355,1.378a20.581,20.581,0,0,0,3.642,4.859A18.765,18.765,0,0,0,32.816,35.6c.674.367,1.077.327,1.5-.114s1.79-1.926,2.274-2.589.937-.535,1.558-.285,3.932,2.025,4.607,2.391,1.124.554,1.285.844A5.648,5.648,0,0,1,43.513,39.073Z" transform="translate(-2.25 -2.25)" fill="#10d50a"/>
</svg>
